# xmcd
#
# Track frame offsets:
#	150
#	13616
#	24241
#	39123
#	51831
#	64214
#	80382
#	92845
#	106360
#	118294
#	129021
#	140980
#	158513
#	170468
#	181162
#	192920
#	205136
#	217728
#	234248
#	252722
#	263843
#	275030
#	286155
#	303185
#
# Disc length: 4238 seconds
#
# Revision: 1
# Processed by: cddbd v1.5.2PL0 Copyright (c) Steve Scherf et al.
# Submitted via: audiograbber 1.83.01
#
DISCID=49108c18
DTITLE=Dennis Brew - Bouquet of Roses - Vol. 1:  Heartbreak City
DYEAR=2013
DGENRE=Country
TTITLE0=Heartaches By The Number
TTITLE1=Bye Bye Love
TTITLE2=The Blue Side Of Lonesome
TTITLE3=There's A Tear In My Beer
TTITLE4=Wasted Days And Wasted Nights
TTITLE5=Wedding Bells
TTITLE6=Your Cheatin' Heart
TTITLE7=Almost Persuaded
TTITLE8=Before The Next Teardrop Falls
TTITLE9=Blue Eyes Crying In The Rain
TTITLE10=Crazy
TTITLE11=Crying
TTITLE12=Four Walls
TTITLE13=He'll Have To Go
TTITLE14=I Can't Stop Loving You
TTITLE15=I Fall To Pieces
TTITLE16=I'm So Lonesome I Could Cry
TTITLE17=Lucille
TTITLE18=My Son Calls Another Man Daddy
TTITLE19=Oh Lonesome Me
TTITLE20=Ring Of Fire
TTITLE21=Tennesee Waltz
TTITLE22=For The Good Times
TTITLE23=He Stopped Loving Her Today
EXTD=Dennis Brew (1948-2013]\nRecordings made at his home
EXTT0=
EXTT1=
EXTT2=
EXTT3=
EXTT4=
EXTT5=
EXTT6=
EXTT7=
EXTT8=
EXTT9=
EXTT10=
EXTT11=
EXTT12=
EXTT13=
EXTT14=
EXTT15=
EXTT16=
EXTT17=
EXTT18=
EXTT19=
EXTT20=
EXTT21=
EXTT22=
EXTT23=
PLAYORDER=
